<?xml version="1.0" standalone="no"?>
<!DOCTYPE svg PUBLIC "-//W3C//DTD SVG 20010904//EN"
 "http://www.w3.org/TR/2001/REC-SVG-20010904/DTD/svg10.dtd">
<svg version="1.0" xmlns="http://www.w3.org/2000/svg"
 width="223.000000pt" height="125.000000pt" viewBox="0 0 223.000000 125.000000"
 preserveAspectRatio="xMidYMid meet">

<g transform="translate(0.000000,125.000000) scale(0.100000,-0.100000)"
fill="#000000" stroke="none">
<path d="M60 881 c0 -4 -14 -81 -30 -169 l-30 -161 35 -55 36 -56 208 0 c208
0 209 0 215 23 3 12 6 39 6 60 l0 37 50 0 50 0 17 -60 16 -60 144 0 143 0 0
-34 0 -35 210 -1 210 0 0 35 0 35 353 0 353 0 29 59 c24 52 32 60 59 63 25 2
36 13 63 60 l34 58 -16 87 c-9 49 -19 96 -21 106 -5 16 -65 17 -1070 17 -590
0 -1064 -4 -1064 -9z m260 -31 c0 -6 -7 -55 -16 -109 l-17 -98 -117 0 -117 0
13 76 c7 42 16 91 19 109 l6 32 114 0 c73 0 115 -4 115 -10z m282 -15 c-4 -24
-8 -25 -72 -25 -53 0 -69 -4 -74 -16 -15 -40 -8 -44 67 -44 l74 0 -5 -30 -4
-30 -74 0 c-72 0 -74 -1 -74 -25 0 -23 -4 -25 -45 -25 -52 0 -50 -8 -33 126
l11 94 117 0 117 0 -5 -25z m286 -30 c-2 -45 -6 -55 -20 -55 -10 0 -18 -7 -18
-15 0 -8 7 -15 15 -15 11 0 15 -11 15 -40 l0 -40 -45 0 c-41 0 -45 2 -45 25 0
21 -5 25 -30 25 -25 0 -30 -4 -30 -25 0 -23 -4 -25 -45 -25 l-44 0 5 88 c9
145 -4 132 130 132 l115 0 -3 -55z m142 -32 c0 -124 -4 -133 -51 -133 l-39 0
0 110 0 110 45 0 45 0 0 -87z m282 62 c5 -25 5 -25 -68 -25 l-74 0 0 -85 0
-85 -45 0 -45 0 0 110 0 110 114 0 c113 0 114 0 118 -25z m288 -2 c0 -16 3
-65 6 -109 l7 -82 -116 0 -115 0 -6 30 c-3 17 -6 66 -6 109 l0 79 115 0 115 0
0 -27z m285 -10 c3 -21 8 -46 10 -55 2 -12 -3 -18 -16 -18 -10 0 -19 -7 -19
-15 0 -8 9 -15 19 -15 15 0 20 -9 23 -40 l4 -40 -42 0 c-36 0 -43 3 -48 25 -5
18 -13 25 -31 25 -20 0 -25 -5 -25 -25 0 -23 -4 -25 -44 -25 l-44 0 -6 55 c-3
30 -9 80 -12 110 l-6 55 115 0 116 0 6 -37z m288 -5 c3 -24 9 -62 13 -85 l7
-43 -72 0 c-70 0 -71 -1 -71 -26 0 -23 -3 -25 -42 -22 l-42 3 -12 70 c-6 39
-14 87 -17 108 l-6 37 118 0 118 0 6 -42z m-843 -153 c0 -12 -14 -15 -65 -15
-51 0 -65 3 -65 15 0 12 14 15 65 15 51 0 65 -3 65 -15z m-42 -52 c-21 -2 -57
-2 -80 0 -24 2 -7 4 37 4 44 0 63 -2 43 -4z m-1170 -50 c-15 -2 -42 -2 -60 0
-18 2 -6 4 27 4 33 0 48 -2 33 -4z m150 0 c-15 -2 -42 -2 -60 0 -18 2 -6 4 27
4 33 0 48 -2 33 -4z m150 0 c-15 -2 -42 -2 -60 0 -18 2 -6 4 27 4 33 0 48 -2
33 -4z m290 0 c-16 -2 -40 -2 -55 0 -16 2 -3 4 27 4 30 0 43 -2 28 -4z m150 0
c-16 -2 -40 -2 -55 0 -16 2 -3 4 27 4 30 0 43 -2 28 -4z m150 0 c-16 -2 -40
-2 -55 0 -16 2 -3 4 27 4 30 0 43 -2 28 -4z m260 0 c-38 -2 -98 -2 -135 0 -38
2 -7 3 67 3 74 0 105 -1 68 -3z m190 0 c-15 -2 -42 -2 -60 0 -18 2 -6 4 27 4
33 0 48 -2 33 -4z m150 0 c-15 -2 -42 -2 -60 0 -18 2 -6 4 27 4 33 0 48 -2 33
-4z m150 0 c-15 -2 -42 -2 -60 0 -18 2 -6 4 27 4 33 0 48 -2 33 -4z m150 0
c-15 -2 -42 -2 -60 0 -18 2 -6 4 27 4 33 0 48 -2 33 -4z m140 0 c-16 -2 -40
-2 -55 0 -16 2 -3 4 27 4 30 0 43 -2 28 -4z m-1040 -90 c3 -34 0 -43 -12 -43
-11 0 -16 9 -16 30 0 17 -4 30 -10 30 -5 0 -10 -13 -10 -30 0 -20 -5 -30 -15
-30 -11 0 -15 12 -15 46 l0 45 37 -3 c36 -3 38 -4 41 -45z m112 2 c0 -33 -4
-45 -15 -45 -14 0 -20 17 -16 48 4 26 -18 10 -24 -19 -9 -42 -29 -31 -33 19
l-3 42 45 0 46 0 0 -45z m100 30 c0 -9 -9 -15 -25 -15 -21 0 -25 -5 -25 -30 0
-50 -27 -37 -32 15 l-3 45 42 0 c32 0 43 -4 43 -15z m110 0 c0 -10 -10 -15
-30 -15 -16 0 -30 -4 -30 -10 0 -5 14 -10 30 -10 32 0 36 -6 19 -30 -8 -11
-12 -12 -16 -2 -2 6 -18 12 -34 12 -26 0 -29 3 -29 35 0 35 0 35 45 35 33 0
45 -4 45 -15z m-107 -72 c-7 -2 -21 -2 -30 0 -10 3 -4 5 12 5 17 0 24 -2 18
-5z m-218 -23 c-3 -5 -23 -9 -43 -9 l-37 2 40 7 c22 4 41 8 43 9 2 0 0 -3 -3
-9z m98 -7 c-13 -2 -35 -2 -50 0 -16 2 -5 4 22 4 28 0 40 -2 28 -4z m100 0
c-13 -2 -33 -2 -45 0 -13 2 -3 4 22 4 25 0 35 -2 23 -4z m110 0 c-13 -2 -35
-2 -50 0 -16 2 -5 4 22 4 28 0 40 -2 28 -4z"/>
<path d="M127 803 c-15 -14 -6 -33 15 -33 19 0 20 -2 6 -12 -9 -7 -18 -25 -20
-40 -5 -24 -2 -28 18 -28 15 0 24 6 24 15 0 8 5 15 10 15 6 0 10 -7 10 -15 0
-9 9 -15 25 -15 21 0 25 5 25 29 0 17 -6 33 -12 37 -9 6 -5 10 12 14 14 3 26
14 28 24 3 14 -2 17 -30 14 -24 -2 -33 -8 -32 -20 1 -12 -5 -18 -19 -18 -16 0
-18 3 -9 12 7 7 12 16 12 20 0 10 -54 11 -63 1z"/>
<path d="M740 780 c0 -25 4 -30 24 -30 17 0 25 7 28 25 6 30 2 35 -29 35 -19
0 -23 -5 -23 -30z"/>
<path d="M1410 790 c0 -15 7 -20 27 -20 24 0 25 -1 9 -13 -23 -17 -12 -67 15
-67 10 0 19 7 19 15 0 8 5 15 10 15 6 0 10 -7 10 -15 0 -9 9 -15 25 -15 28 0
31 13 11 53 -14 25 -13 27 5 27 12 0 19 7 19 20 0 16 -7 20 -34 20 -29 0 -34
-3 -31 -20 2 -12 -2 -20 -10 -20 -8 0 -11 7 -8 20 5 17 0 20 -31 20 -29 0 -36
-4 -36 -20z"/>
<path d="M1750 780 c0 -25 4 -30 25 -30 21 0 25 5 25 30 0 25 -4 30 -25 30
-21 0 -25 -5 -25 -30z"/>
<path d="M2033 788 c4 -13 7 -26 7 -30 0 -5 12 -8 26 -8 22 0 25 4 22 28 -2
21 -9 28 -32 30 -26 3 -28 1 -23 -20z"/>
</g>
</svg>
